<svg xmlns="http://www.w3.org/2000/svg" xmlns:xlink="http://www.w3.org/1999/xlink" width="4268pt" height="188pt" viewBox="0 0 4267.5 188"><g id="graph0" class="graph" transform="scale(1 1) rotate(0) translate(4 184)"><title>gomodgraph</title><polygon fill="#fff" stroke="none" points="-4 4 -4 -184 4263.5 -184 4263.5 4 -4 4"/><g id="node1" class="node"><title>example.com/.../main_repo</title><polygon fill="none" stroke="#000" points="1266 -180 1121 -180 1121 -144 1266 -144 1266 -180"/><text x="1193.5" y="-158.9" font-family="Times,serif" font-size="12" text-anchor="middle">example.com/.../main_repo</text></g><g id="node2" class="node"><title>github.com/antlr/antlr4/runtime/Go/antlr@v1.4.10</title><polygon fill="green" stroke="#000" points="1287.5 -108 1035.5 -108 1035.5 -72 1287.5 -72 1287.5 -108"/><text x="1161.5" y="-86.9" font-family="Times,serif" font-size="12" text-anchor="middle">github.com/antlr/antlr4/runtime/Go/antlr@v1.4.10</text></g><g id="edge1" class="edge"><title>example.com/.../main_repo-&gt;github.com/antlr/antlr4/runtime/Go/antlr@v1.4.10</title><path fill="none" stroke="#000" d="M1185.59,-143.7C1182.1,-136.07 1177.92,-126.92 1174.02,-118.4"/><polygon fill="#000" stroke="#000" points="1177.29 -117.12 1169.95 -109.48 1170.92 -120.03 1177.29 -117.12"/></g><g id="node3" class="node"><title>github.com/google/cel-go@v0.9.0</title><polygon fill="green" stroke="#000" points="1485 -108 1306 -108 1306 -72 1485 -72 1485 -108"/><text x="1395.5" y="-86.9" font-family="Times,serif" font-size="12" text-anchor="middle">github.com/google/cel-go@v0.9.0</text></g><g id="edge2" class="edge"><title>example.com/.../main_repo-&gt;github.com/google/cel-go@v0.9.0</title><path fill="none" stroke="#000" d="M1243.95,-143.52C1271.41,-134 1305.59,-122.16 1334.53,-112.13"/><polygon fill="#000" stroke="#000" points="1335.61 -115.46 1343.91 -108.88 1333.32 -108.84 1335.61 -115.46"/></g><g id="node9" class="node"><title>github.com/antlr/antlr4/runtime/Go/antlr@v0.0.0-20210826220005-b48c857c3a0e</title><polygon fill="gray" stroke="#000" points="407 -36 0 -36 0 0 407 0 407 -36"/><text x="203.5" y="-14.9" font-family="Times,serif" font-size="12" text-anchor="middle">github.com/antlr/antlr4/runtime/Go/antlr@v0.0.0-20210826220005-b48c857c3a0e</text></g><g id="edge7" class="edge"><title>github.com/google/cel-go@v0.9.0-&gt;github.com/antlr/antlr4/runtime/Go/antlr@v0.0.0-20210826220005-b48c857c3a0e</title><path fill="none" stroke="#000" d="M1305.73,-73.06C1302.62,-72.68 1299.53,-72.32 1296.5,-72 910.94,-31.18 809.16,-59.03 418.61,-36.11"/><polygon fill="#000" stroke="#000" points="418.97 -32.62 408.78 -35.52 418.55 -39.61 418.97 -32.62"/></g><g id="node10" class="node"><title>github.com/golang/glog@v1.0.0</title><polygon fill="green" stroke="#000" points="595.5 -36 425.5 -36 425.5 0 595.5 0 595.5 -36"/><text x="510.5" y="-14.9" font-family="Times,serif" font-size="12" text-anchor="middle">github.com/golang/glog@v1.0.0</text></g><g id="edge8" class="edge"><title>github.com/google/cel-go@v0.9.0-&gt;github.com/golang/glog@v1.0.0</title><path fill="none" stroke="#000" d="M1305.72,-73.11C1302.61,-72.71 1299.53,-72.34 1296.5,-72 994.16,-38.3 912.41,-70.67 607.4,-36.24"/><polygon fill="#000" stroke="#000" points="607.83 -32.77 597.49 -35.11 607.03 -39.72 607.83 -32.77"/></g><g id="node11" class="node"><title>github.com/golang/protobuf@v1.5.2</title><polygon fill="green" stroke="#000" points="803.5 -36 613.5 -36 613.5 0 803.5 0 803.5 -36"/><text x="708.5" y="-14.9" font-family="Times,serif" font-size="12" text-anchor="middle">github.com/golang/protobuf@v1.5.2</text></g><g id="edge9" class="edge"><title>github.com/google/cel-go@v0.9.0-&gt;github.com/golang/protobuf@v1.5.2</title><path fill="none" stroke="#000" d="M1305.71,-73.2C1302.61,-72.77 1299.53,-72.37 1296.5,-72 1086.06,-46.17 1028.65,-60.9 815.22,-36.26"/><polygon fill="#000" stroke="#000" points="815.79 -32.8 805.45 -35.11 814.97 -39.75 815.79 -32.8"/></g><g id="node12" class="node"><title>github.com/google/cel-spec@v0.6.0</title><polygon fill="green" stroke="#000" points="1009.5 -36 821.5 -36 821.5 0 1009.5 0 1009.5 -36"/><text x="915.5" y="-14.9" font-family="Times,serif" font-size="12" text-anchor="middle">github.com/google/cel-spec@v0.6.0</text></g><g id="edge10" class="edge"><title>github.com/google/cel-go@v0.9.0-&gt;github.com/google/cel-spec@v0.6.0</title><path fill="none" stroke="#000" d="M1305.68,-73.41C1302.59,-72.93 1299.52,-72.45 1296.5,-72 1176.91,-54 1143.69,-54.12 1021.12,-36.35"/><polygon fill="#000" stroke="#000" points="1021.68 -32.9 1011.28 -34.91 1020.66 -39.82 1021.68 -32.9"/></g><g id="node13" class="node"><title>github.com/stoewer/go-strcase@v1.2.0</title><polygon fill="green" stroke="#000" points="1229 -36 1028 -36 1028 0 1229 0 1229 -36"/><text x="1128.5" y="-14.9" font-family="Times,serif" font-size="12" text-anchor="middle">github.com/stoewer/go-strcase@v1.2.0</text></g><g id="edge11" class="edge"><title>github.com/google/cel-go@v0.9.0-&gt;github.com/stoewer/go-strcase@v1.2.0</title><path fill="none" stroke="#000" d="M1328.81,-71.52C1291.48,-61.73 1244.75,-49.48 1205.82,-39.27"/><polygon fill="#000" stroke="#000" points="1206.82 -35.92 1196.26 -36.77 1205.05 -42.69 1206.82 -35.92"/></g><g id="node14" class="node"><title>golang.org/x/net@v0.0.0-20210825183410-e898025ed96a</title><polygon fill="green" stroke="#000" points="1543.5 -36 1247.5 -36 1247.5 0 1543.5 0 1543.5 -36"/><text x="1395.5" y="-14.9" font-family="Times,serif" font-size="12" text-anchor="middle">golang.org/x/net@v0.0.0-20210825183410-e898025ed96a</text></g><g id="edge12" class="edge"><title>github.com/google/cel-go@v0.9.0-&gt;golang.org/x/net@v0.0.0-20210825183410-e898025ed96a</title><path fill="none" stroke="#000" d="M1395.5,-71.7C1395.5,-64.41 1395.5,-55.73 1395.5,-47.54"/><polygon fill="#000" stroke="#000" points="1399 -47.62 1395.5 -37.62 1392 -47.62 1399 -47.62"/></g><g id="node15" class="node"><title>golang.org/x/sys@v0.0.0-20210831042530-f4d43177bf5e</title><polygon fill="green" stroke="#000" points="1855.5 -36 1561.5 -36 1561.5 0 1855.5 0 1855.5 -36"/><text x="1708.5" y="-14.9" font-family="Times,serif" font-size="12" text-anchor="middle">golang.org/x/sys@v0.0.0-20210831042530-f4d43177bf5e</text></g><g id="edge13" class="edge"><title>github.com/google/cel-go@v0.9.0-&gt;golang.org/x/sys@v0.0.0-20210831042530-f4d43177bf5e</title><path fill="none" stroke="#000" d="M1473.68,-71.52C1517.92,-61.62 1573.42,-49.21 1619.35,-38.94"/><polygon fill="#000" stroke="#000" points="1620.04 -42.37 1629.03 -36.77 1618.51 -35.54 1620.04 -42.37"/></g><g id="node16" class="node"><title>golang.org/x/text@v0.3.7</title><polygon fill="green" stroke="#000" points="2011.5 -36 1873.5 -36 1873.5 0 2011.5 0 2011.5 -36"/><text x="1942.5" y="-14.9" font-family="Times,serif" font-size="12" text-anchor="middle">golang.org/x/text@v0.3.7</text></g><g id="edge14" class="edge"><title>github.com/google/cel-go@v0.9.0-&gt;golang.org/x/text@v0.3.7</title><path fill="none" stroke="#000" d="M1485.35,-81.59C1577.54,-73.37 1725.28,-58.46 1862.15,-36.29"/><polygon fill="#000" stroke="#000" points="1862.45 -39.79 1871.75 -34.72 1861.32 -32.88 1862.45 -39.79"/></g><g id="node17" class="node"><title>google.golang.org/genproto@v0.0.0-20210831024726-fe130286e0e2</title><polygon fill="green" stroke="#000" points="2377.5 -36 2029.5 -36 2029.5 0 2377.5 0 2377.5 -36"/><text x="2203.5" y="-14.9" font-family="Times,serif" font-size="12" text-anchor="middle">google.golang.org/genproto@v0.0.0-20210831024726-fe130286e0e2</text></g><g id="edge15" class="edge"><title>github.com/google/cel-go@v0.9.0-&gt;google.golang.org/genproto@v0.0.0-20210831024726-fe130286e0e2</title><path fill="none" stroke="#000" d="M1485.31,-81.61C1604.42,-71.76 1821.53,-53.63 2017.75,-36.24"/><polygon fill="#000" stroke="#000" points="2017.99 -39.73 2027.64 -35.36 2017.37 -32.76 2017.99 -39.73"/></g><g id="node18" class="node"><title>google.golang.org/grpc@v1.40.0</title><polygon fill="green" stroke="#000" points="2569.5 -36 2395.5 -36 2395.5 0 2569.5 0 2569.5 -36"/><text x="2482.5" y="-14.9" font-family="Times,serif" font-size="12" text-anchor="middle">google.golang.org/grpc@v1.40.0</text></g><g id="edge16" class="edge"><title>github.com/google/cel-go@v0.9.0-&gt;google.golang.org/grpc@v1.40.0</title><path fill="none" stroke="#000" d="M1485.31,-87.86C1657.75,-84.86 2047.23,-74.22 2384.23,-36.18"/><polygon fill="#000" stroke="#000" points="2384.15 -39.71 2393.68 -35.1 2383.35 -32.75 2384.15 -39.71"/></g><g id="node19" class="node"><title>google.golang.org/protobuf@v1.27.1</title><polygon fill="green" stroke="#000" points="2781.5 -36 2587.5 -36 2587.5 0 2781.5 0 2781.5 -36"/><text x="2684.5" y="-14.9" font-family="Times,serif" font-size="12" text-anchor="middle">google.golang.org/protobuf@v1.27.1</text></g><g id="edge17" class="edge"><title>github.com/google/cel-go@v0.9.0-&gt;google.golang.org/protobuf@v1.27.1</title><path fill="none" stroke="#000" d="M1485.17,-88.47C1681.24,-86.56 2162.95,-77.75 2575.95,-36.19"/><polygon fill="#000" stroke="#000" points="2576.13 -39.69 2585.72 -35.2 2575.42 -32.72 2576.13 -39.69"/></g><g id="node4" class="node"><title>example.com/.../dep3@va.b.c</title><polygon fill="green" stroke="#000" points="1474.5 -180 1316.5 -180 1316.5 -144 1474.5 -144 1474.5 -180"/><text x="1395.5" y="-158.9" font-family="Times,serif" font-size="12" text-anchor="middle">example.com/.../dep3@va.b.c</text></g><g id="edge3" class="edge"><title>example.com/.../dep3@va.b.c-&gt;github.com/google/cel-go@v0.9.0</title><path fill="none" stroke="#000" d="M1395.5,-143.7C1395.5,-136.41 1395.5,-127.73 1395.5,-119.54"/><polygon fill="#000" stroke="#000" points="1399 -119.62 1395.5 -109.62 1392 -119.62 1399 -119.62"/></g><g id="node5" class="node"><title>example.com/.../dep1@va.b.c</title><polygon fill="green" stroke="#000" points="3271.5 -180 3113.5 -180 3113.5 -144 3271.5 -144 3271.5 -180"/><text x="3192.5" y="-158.9" font-family="Times,serif" font-size="12" text-anchor="middle">example.com/.../dep1@va.b.c</text></g><g id="node6" class="node"><title>github.com/antlr/antlr4@v0.0.0-20200503195918-621b933c7a7f</title><polygon fill="green" stroke="#000" points="3125 -36 2800 -36 2800 0 3125 0 3125 -36"/><text x="2962.5" y="-14.9" font-family="Times,serif" font-size="12" text-anchor="middle">github.com/antlr/antlr4@v0.0.0-20200503195918-621b933c7a7f</text></g><g id="edge4" class="edge"><title>example.com/.../dep1@va.b.c-&gt;github.com/antlr/antlr4@v0.0.0-20200503195918-621b933c7a7f</title><path fill="none" stroke="#000" d="M3164.3,-143.59C3123.06,-118.13 3046.22,-70.69 3000.18,-42.27"/><polygon fill="#000" stroke="#000" points="3002.21 -39.4 2991.86 -37.13 2998.53 -45.36 3002.21 -39.4"/></g><g id="node7" class="node"><title>github.com/google/cel-go@v0.5.1</title><polygon fill="gray" stroke="#000" points="3535 -108 3356 -108 3356 -72 3535 -72 3535 -108"/><text x="3445.5" y="-86.9" font-family="Times,serif" font-size="12" text-anchor="middle">github.com/google/cel-go@v0.5.1</text></g><g id="edge5" class="edge"><title>example.com/.../dep1@va.b.c-&gt;github.com/google/cel-go@v0.5.1</title><path fill="none" stroke="#000" d="M3255.69,-143.52C3290.99,-133.75 3335.15,-121.53 3372,-111.34"/><polygon fill="#000" stroke="#000" points="3372.51 -114.83 3381.22 -108.79 3370.65 -108.08 3372.51 -114.83"/></g><g id="edge18" class="edge"><title>github.com/google/cel-go@v0.5.1-&gt;github.com/antlr/antlr4@v0.0.0-20200503195918-621b933c7a7f</title><path fill="none" stroke="#000" d="M3355.5,-75.96C3282.05,-65.31 3177.23,-50.12 3094.31,-38.1"/><polygon fill="#000" stroke="#000" points="3094.92 -34.65 3084.52 -36.68 3093.92 -41.58 3094.92 -34.65"/></g><g id="node20" class="node"><title>github.com/golang/protobuf@v1.3.4</title><polygon fill="gray" stroke="#000" points="3333.5 -36 3143.5 -36 3143.5 0 3333.5 0 3333.5 -36"/><text x="3238.5" y="-14.9" font-family="Times,serif" font-size="12" text-anchor="middle">github.com/golang/protobuf@v1.3.4</text></g><g id="edge19" class="edge"><title>github.com/google/cel-go@v0.5.1-&gt;github.com/golang/protobuf@v1.3.4</title><path fill="none" stroke="#000" d="M3393.8,-71.52C3365.54,-61.96 3330.33,-50.05 3300.59,-40"/><polygon fill="#000" stroke="#000" points="3301.93 -36.75 3291.33 -36.87 3299.69 -43.39 3301.93 -36.75"/></g><g id="node21" class="node"><title>github.com/google/cel-spec@v0.4.0</title><polygon fill="gray" stroke="#000" points="3539.5 -36 3351.5 -36 3351.5 0 3539.5 0 3539.5 -36"/><text x="3445.5" y="-14.9" font-family="Times,serif" font-size="12" text-anchor="middle">github.com/google/cel-spec@v0.4.0</text></g><g id="edge20" class="edge"><title>github.com/google/cel-go@v0.5.1-&gt;github.com/google/cel-spec@v0.4.0</title><path fill="none" stroke="#000" d="M3445.5,-71.7C3445.5,-64.41 3445.5,-55.73 3445.5,-47.54"/><polygon fill="#000" stroke="#000" points="3449 -47.62 3445.5 -37.62 3442 -47.62 3449 -47.62"/></g><g id="node22" class="node"><title>golang.org/x/text@v0.3.2</title><polygon fill="gray" stroke="#000" points="3695.5 -36 3557.5 -36 3557.5 0 3695.5 0 3695.5 -36"/><text x="3626.5" y="-14.9" font-family="Times,serif" font-size="12" text-anchor="middle">golang.org/x/text@v0.3.2</text></g><g id="edge21" class="edge"><title>github.com/google/cel-go@v0.5.1-&gt;golang.org/x/text@v0.3.2</title><path fill="none" stroke="#000" d="M3490.71,-71.52C3514.99,-62.13 3545.13,-50.47 3570.84,-40.53"/><polygon fill="#000" stroke="#000" points="3572.08 -43.8 3580.14 -36.93 3569.55 -37.27 3572.08 -43.8"/></g><g id="node23" class="node"><title>google.golang.org/genproto@v0.0.0-20200305110556-506484158171</title><polygon fill="gray" stroke="#000" points="4067 -36 3714 -36 3714 0 4067 0 4067 -36"/><text x="3890.5" y="-14.9" font-family="Times,serif" font-size="12" text-anchor="middle">google.golang.org/genproto@v0.0.0-20200305110556-506484158171</text></g><g id="edge22" class="edge"><title>github.com/google/cel-go@v0.5.1-&gt;google.golang.org/genproto@v0.0.0-20200305110556-506484158171</title><path fill="none" stroke="#000" d="M3535.28,-74.88C3602.3,-64.34 3694.62,-49.81 3768.35,-38.21"/><polygon fill="#000" stroke="#000" points="3768.72 -41.7 3778.06 -36.69 3767.63 -34.78 3768.72 -41.7"/></g><g id="node24" class="node"><title>google.golang.org/grpc@v1.27.1</title><polygon fill="gray" stroke="#000" points="4259.5 -36 4085.5 -36 4085.5 0 4259.5 0 4259.5 -36"/><text x="4172.5" y="-14.9" font-family="Times,serif" font-size="12" text-anchor="middle">google.golang.org/grpc@v1.27.1</text></g><g id="edge23" class="edge"><title>github.com/google/cel-go@v0.5.1-&gt;google.golang.org/grpc@v1.27.1</title><path fill="none" stroke="#000" d="M3535.38,-84.05C3655.74,-76.83 3876.13,-61.59 4073.98,-36.26"/><polygon fill="#000" stroke="#000" points="4074.2 -39.76 4083.67 -35.01 4073.31 -32.82 4074.2 -39.76"/></g><g id="node8" class="node"><title>example.com/.../dep2@va.b.c</title><polygon fill="green" stroke="#000" points="3524.5 -180 3366.5 -180 3366.5 -144 3524.5 -144 3524.5 -180"/><text x="3445.5" y="-158.9" font-family="Times,serif" font-size="12" text-anchor="middle">example.com/.../dep2@va.b.c</text></g><g id="edge6" class="edge"><title>example.com/.../dep2@va.b.c-&gt;github.com/google/cel-go@v0.5.1</title><path fill="none" stroke="#000" d="M3445.5,-143.7C3445.5,-136.41 3445.5,-127.73 3445.5,-119.54"/><polygon fill="#000" stroke="#000" points="3449 -119.62 3445.5 -109.62 3442 -119.62 3449 -119.62"/></g></g></svg>