<?xml version="1.0" standalone="no"?>
<!DOCTYPE svg PUBLIC "-//W3C//DTD SVG 20010904//EN"
 "http://www.w3.org/TR/2001/REC-SVG-20010904/DTD/svg10.dtd">
<svg version="1.0" xmlns="http://www.w3.org/2000/svg"
 width="3861.000000pt" height="3861.000000pt" viewBox="0 0 3861.000000 3861.000000"
 preserveAspectRatio="xMidYMid meet">
<metadata>
Created by potrace 1.14, written by Peter Selinger 2001-2017
</metadata>
<g transform="translate(0.000000,3861.000000) scale(0.100000,-0.100000)"
fill="#000000" stroke="none">
<path d="M19500 38479 c-107 -4 -220 -11 -250 -14 -30 -4 -107 -8 -170 -10
-63 -1 -142 -8 -175 -14 -80 -15 -291 -32 -445 -36 -95 -3 -139 -8 -184 -24
-33 -12 -83 -21 -112 -21 -29 0 -88 -11 -131 -25 -43 -14 -88 -25 -100 -25
-12 0 -59 -9 -105 -20 -45 -11 -116 -22 -158 -26 -75 -6 -133 -20 -305 -74
-49 -16 -120 -38 -156 -49 -36 -12 -72 -21 -81 -21 -15 0 -287 -83 -392 -119
-33 -12 -73 -21 -90 -21 -17 0 -85 -14 -151 -31 -66 -17 -145 -35 -176 -40
-31 -4 -80 -18 -108 -29 -29 -11 -66 -20 -84 -20 -18 -1 -57 -10 -87 -21 -30
-11 -82 -29 -115 -39 -33 -10 -96 -34 -140 -53 -123 -52 -216 -85 -260 -92
-22 -3 -85 -28 -140 -55 -55 -26 -136 -65 -180 -85 -178 -82 -395 -192 -480
-244 -49 -30 -115 -65 -145 -79 -30 -14 -79 -42 -108 -64 -29 -21 -72 -47 -97
-58 -24 -10 -64 -37 -87 -58 -51 -47 -129 -94 -184 -112 -77 -24 -282 -130
-360 -186 -43 -31 -101 -66 -129 -79 -27 -12 -67 -35 -87 -51 -20 -16 -66 -49
-103 -74 -36 -25 -94 -65 -128 -89 -34 -25 -94 -57 -132 -71 -80 -30 -175 -93
-325 -215 -60 -49 -185 -134 -265 -180 -65 -37 -166 -115 -235 -181 -30 -30
-79 -68 -107 -86 -29 -18 -85 -55 -125 -82 -151 -102 -185 -124 -253 -161 -38
-21 -109 -64 -157 -96 -47 -31 -112 -67 -145 -79 -34 -12 -98 -52 -155 -95
-53 -41 -120 -84 -150 -96 -29 -11 -77 -39 -106 -61 -30 -22 -79 -51 -110 -64
-31 -14 -79 -36 -107 -51 -27 -14 -77 -39 -110 -56 -33 -16 -79 -45 -103 -64
-61 -50 -119 -89 -250 -167 -83 -50 -128 -85 -169 -132 -47 -53 -65 -66 -111
-79 -41 -12 -66 -28 -102 -66 -35 -37 -61 -53 -101 -65 -40 -12 -65 -28 -99
-64 -65 -68 -123 -139 -152 -185 -34 -53 -65 -81 -113 -101 -22 -9 -54 -27
-71 -39 -17 -13 -54 -37 -82 -54 -61 -36 -244 -193 -315 -271 -107 -117 -266
-265 -357 -332 -52 -39 -117 -92 -145 -118 -27 -26 -69 -59 -92 -73 -23 -15
-54 -43 -69 -64 -16 -21 -46 -56 -69 -78 -22 -22 -55 -68 -72 -101 -20 -37
-67 -96 -116 -146 -90 -91 -157 -176 -200 -249 -14 -25 -33 -52 -42 -59 -10
-8 -49 -59 -88 -115 -40 -55 -81 -112 -92 -127 -229 -309 -241 -327 -380 -578
-32 -58 -66 -116 -75 -130 -52 -77 -152 -289 -180 -380 -18 -58 -41 -121 -51
-141 -10 -20 -25 -74 -34 -120 -9 -46 -28 -119 -42 -162 -30 -94 -52 -113
-116 -103 -115 19 -124 18 -171 -2 -25 -12 -70 -43 -99 -70 -73 -69 -151 -102
-262 -112 -61 -5 -111 -16 -154 -34 -78 -33 -233 -120 -283 -158 -21 -16 -68
-46 -105 -67 -100 -56 -231 -138 -288 -180 -27 -21 -75 -54 -105 -74 -67 -44
-273 -245 -355 -347 -33 -41 -92 -109 -131 -150 -39 -42 -79 -92 -89 -111 -23
-45 -71 -114 -116 -166 -28 -32 -42 -66 -67 -156 -18 -62 -32 -134 -32 -158 0
-25 -9 -69 -19 -99 -11 -30 -24 -102 -30 -160 -15 -141 -28 -221 -42 -256 -13
-32 -31 -166 -32 -229 0 -23 8 -55 17 -73 21 -42 35 -112 46 -242 5 -58 20
-151 35 -208 14 -56 25 -124 24 -150 -2 -48 25 -167 43 -189 23 -28 60 -155
72 -248 12 -83 20 -111 52 -169 23 -39 59 -85 86 -108 60 -50 149 -203 163
-281 11 -55 49 -105 145 -187 85 -73 102 -85 218 -154 74 -44 218 -87 267 -79
19 3 54 -2 81 -11 26 -9 79 -16 118 -16 66 0 76 -3 145 -45 41 -25 91 -47 110
-51 20 -3 62 -14 94 -25 31 -10 70 -19 85 -19 15 0 53 -9 85 -20 31 -11 62
-20 69 -20 7 0 36 -12 63 -27 28 -14 79 -34 115 -43 67 -18 220 -85 300 -132
39 -23 118 -57 212 -90 20 -7 32 -24 49 -66 12 -32 39 -95 60 -142 21 -47 49
-128 63 -180 14 -52 42 -149 62 -215 44 -145 61 -208 115 -430 22 -93 53 -199
69 -235 15 -36 33 -85 40 -109 6 -23 26 -77 45 -120 18 -42 36 -87 40 -101 22
-80 76 -195 124 -265 32 -47 68 -117 87 -170 47 -131 68 -176 98 -212 14 -17
33 -48 40 -70 33 -88 79 -190 107 -240 17 -30 37 -75 44 -101 25 -88 83 -221
118 -270 37 -50 96 -170 127 -258 10 -29 27 -69 39 -90 11 -22 43 -91 71 -154
29 -63 69 -153 90 -200 22 -47 44 -107 50 -135 6 -27 18 -70 27 -95 8 -25 25
-81 38 -125 12 -44 47 -127 77 -185 29 -58 77 -154 106 -215 85 -181 138 -275
179 -319 58 -61 100 -126 124 -192 16 -43 38 -74 79 -114 31 -30 83 -93 115
-140 32 -47 83 -121 114 -165 30 -44 81 -118 112 -165 32 -47 87 -116 122
-155 35 -38 74 -89 86 -113 12 -24 50 -81 85 -128 44 -60 68 -104 80 -146 21
-77 54 -141 104 -204 22 -28 47 -64 55 -81 9 -16 32 -49 51 -72 19 -23 40 -58
45 -78 6 -19 30 -63 55 -97 84 -112 136 -191 151 -226 8 -19 24 -53 36 -75 11
-22 41 -80 66 -130 59 -119 57 -114 131 -235 35 -58 86 -134 112 -170 26 -36
60 -87 76 -115 32 -56 134 -211 195 -297 22 -32 51 -83 63 -115 13 -32 35 -75
49 -96 14 -21 31 -54 38 -74 6 -21 31 -65 54 -99 24 -34 48 -79 55 -101 7 -21
28 -61 46 -90 18 -28 40 -75 48 -103 9 -29 40 -91 70 -139 70 -110 162 -376
212 -611 34 -156 41 -204 64 -410 11 -101 24 -188 39 -250 19 -86 33 -165 42
-249 5 -47 14 -101 19 -120 5 -20 10 -58 10 -86 0 -27 9 -87 20 -133 11 -46
20 -104 20 -130 0 -26 9 -80 20 -120 11 -39 20 -88 20 -108 0 -19 14 -66 30
-104 17 -38 30 -74 30 -80 0 -7 13 -51 29 -99 16 -47 41 -131 57 -186 15 -55
40 -127 56 -160 21 -45 28 -75 28 -121 0 -33 6 -80 14 -105 14 -43 18 -70 50
-291 9 -58 23 -126 32 -150 8 -24 19 -74 24 -113 5 -38 13 -92 19 -120 25
-122 35 -228 33 -327 -2 -72 2 -127 13 -166 8 -33 15 -86 15 -118 0 -33 7 -93
17 -134 12 -58 16 -124 15 -295 -1 -190 2 -230 19 -293 14 -53 19 -103 18
-175 -1 -177 7 -359 21 -444 11 -66 11 -92 1 -137 -11 -47 -10 -64 5 -116 14
-52 15 -71 6 -128 -18 -104 -22 -336 -7 -401 16 -69 14 -334 -4 -476 -7 -55
-16 -138 -20 -185 -11 -112 -38 -318 -53 -400 -18 -100 -19 -758 -1 -833 11
-47 12 -88 4 -210 l-10 -152 44 -174 c28 -107 45 -196 45 -232 0 -43 10 -81
40 -158 31 -77 40 -114 40 -159 0 -32 7 -81 15 -108 8 -27 20 -76 26 -109 6
-33 20 -76 31 -95 13 -22 25 -73 34 -136 10 -76 22 -121 50 -180 88 -192 122
-352 90 -427 -12 -30 -73 -91 -145 -145 -18 -13 -41 -43 -53 -65 -12 -23 -45
-89 -74 -147 -30 -58 -71 -134 -93 -169 -48 -75 -58 -130 -41 -211 7 -35 10
-81 6 -113 -12 -95 39 -180 174 -287 181 -144 392 -195 535 -128 48 22 59 23
252 21 155 -2 209 -6 230 -17 37 -19 89 -76 142 -156 24 -36 79 -101 122 -145
73 -75 140 -158 234 -291 24 -34 75 -83 130 -124 96 -73 143 -118 194 -190 17
-25 102 -110 189 -188 86 -79 193 -181 237 -227 45 -46 105 -97 137 -115 32
-17 107 -79 168 -136 69 -65 128 -112 156 -125 26 -10 67 -38 93 -60 58 -51
100 -73 182 -94 35 -9 109 -38 164 -65 55 -27 120 -54 144 -60 53 -14 116 -52
131 -79 20 -38 9 -80 -55 -210 -58 -119 -104 -241 -135 -357 -13 -53 -66 -144
-227 -389 -36 -55 -84 -138 -106 -185 -22 -46 -58 -107 -80 -135 -22 -27 -49
-70 -60 -94 -10 -24 -32 -64 -48 -90 -16 -25 -39 -77 -50 -115 -12 -39 -35
-94 -51 -123 -34 -61 -68 -178 -68 -239 0 -23 7 -61 15 -84 8 -23 15 -63 15
-89 0 -69 23 -153 56 -206 16 -25 45 -76 64 -113 30 -56 44 -71 85 -92 87 -44
149 -82 180 -111 28 -26 140 -79 167 -79 7 0 40 -12 73 -26 59 -24 187 -47
275 -48 25 0 77 6 115 14 104 22 190 19 250 -9 50 -23 193 -48 332 -58 64 -5
80 -2 150 26 43 18 94 42 113 54 19 13 56 31 82 41 29 10 58 31 75 53 15 19
49 57 76 85 56 59 69 82 90 169 15 60 62 168 123 279 13 24 24 56 24 71 0 15
13 56 30 91 16 34 30 69 30 77 0 8 11 34 25 57 29 49 85 200 118 319 32 113
89 204 204 323 93 97 100 102 138 102 49 0 74 16 128 84 23 29 76 92 118 139
42 48 109 138 148 201 99 158 101 160 226 151 55 -3 118 -11 140 -17 71 -18
242 -13 315 10 87 27 270 37 370 20 97 -16 244 -16 345 0 44 7 143 17 220 22
332 21 381 28 504 76 34 14 111 36 170 49 122 26 285 70 321 86 14 6 57 15 95
19 40 5 95 20 130 37 57 26 69 28 260 34 200 7 288 21 386 62 19 7 59 20 89
27 30 7 102 37 160 68 103 55 107 56 210 63 100 6 111 9 215 58 106 50 242 91
308 91 18 1 48 7 67 14 141 55 282 99 336 107 36 5 90 22 122 38 31 15 89 39
127 51 79 26 210 89 361 173 56 30 130 63 165 72 35 9 79 25 96 35 18 11 56
26 85 35 29 8 101 33 159 55 58 22 128 47 155 54 188 55 375 144 565 272 96
65 140 88 185 99 32 7 95 27 139 43 44 17 118 44 165 62 47 17 101 42 120 55
20 14 63 36 97 49 34 13 90 44 125 69 35 24 74 48 88 52 14 4 43 20 64 36 22
16 44 29 50 29 17 0 230 102 261 125 17 12 68 39 115 60 112 50 225 111 278
151 24 18 64 40 90 49 92 33 127 51 183 92 32 23 77 52 101 64 24 12 68 39 98
59 30 21 82 52 115 69 70 37 215 130 335 217 47 33 117 78 155 99 83 45 132
77 240 156 159 117 267 189 327 220 44 22 290 214 389 303 31 28 103 88 160
134 168 134 260 210 325 271 34 31 83 72 108 91 100 74 118 90 145 128 16 21
52 55 80 76 28 21 70 63 93 94 24 31 89 91 148 136 104 80 435 401 519 503 31
39 62 62 116 89 69 34 78 36 132 29 32 -4 79 -7 105 -6 31 1 74 -10 123 -29
42 -17 85 -30 97 -30 11 0 36 -17 55 -37 41 -43 158 -131 192 -144 88 -34 151
-87 364 -307 69 -72 238 -220 285 -250 94 -61 152 -75 290 -70 88 2 126 8 152
22 19 10 58 26 85 36 87 32 158 64 230 105 126 70 138 83 293 303 17 26 43 76
57 113 28 73 50 98 110 126 54 25 85 80 85 155 0 32 6 90 14 130 44 226 45
255 11 353 -13 40 -31 117 -39 171 -28 182 -63 253 -158 317 -29 20 -78 66
-108 102 -30 36 -75 90 -100 119 -25 30 -57 74 -72 99 -15 25 -46 58 -70 73
-24 16 -83 58 -133 95 -94 71 -205 125 -290 141 -27 5 -84 21 -125 35 -103 35
-340 89 -425 97 -152 15 -308 49 -337 74 -25 21 -23 73 6 181 34 126 61 194
95 242 18 24 33 60 37 87 3 26 24 88 47 137 39 85 41 95 40 180 -2 107 34 284
72 359 14 27 25 62 25 78 0 16 7 45 16 66 18 42 35 135 38 202 1 25 10 68 20
95 10 28 24 113 32 190 7 77 19 181 25 230 14 113 15 153 5 187 -6 22 -2 33
28 66 26 29 36 49 36 73 0 19 9 54 20 78 11 24 20 65 20 92 0 30 8 65 20 89
13 25 20 59 20 92 0 61 25 188 44 227 25 50 27 80 6 161 -24 95 -20 220 12
315 16 49 18 74 13 141 -6 65 -4 93 10 134 14 41 16 68 10 119 -11 103 -10
120 17 221 24 86 25 103 17 183 -8 84 -8 91 16 135 16 29 25 63 25 90 0 29 10
63 32 104 30 59 31 63 20 117 -10 49 -9 63 5 99 13 34 14 47 5 68 -18 38 -15
62 13 98 31 41 31 71 1 155 -20 57 -23 81 -21 171 3 106 17 210 32 233 9 14
25 267 24 368 -1 37 -8 83 -16 102 -11 27 -12 42 -4 68 14 42 12 239 -2 295
-9 33 -8 48 5 72 22 42 22 172 0 214 -11 21 -15 47 -12 80 8 75 -16 278 -37
318 -16 30 -18 69 -21 330 -1 162 2 322 7 355 5 33 11 120 13 194 4 118 7 136
26 156 11 12 27 49 36 82 14 57 14 63 -6 112 -16 41 -20 74 -20 160 0 69 -5
123 -15 150 -12 36 -12 46 1 84 9 24 13 56 9 74 -5 29 16 126 44 196 15 39 14
98 -3 138 -12 29 -12 43 0 99 19 88 9 420 -14 465 -10 20 -17 65 -19 134 -2
57 -8 121 -14 143 -6 23 -7 68 -3 107 4 47 2 75 -6 91 -13 24 -25 102 -39 250
-4 47 -18 112 -30 145 -17 49 -21 81 -21 192 0 104 -4 146 -19 190 -23 70 -44
338 -35 439 4 45 2 85 -7 114 -7 25 -13 95 -15 155 -3 158 -26 353 -54 454 -6
25 -9 64 -5 90 5 35 1 60 -14 99 -12 29 -21 76 -21 105 -1 29 -8 70 -16 92
-35 91 -84 283 -84 327 0 21 -9 61 -21 90 -17 43 -20 64 -14 108 12 86 9 112
-20 181 -17 39 -30 96 -35 146 -6 63 -17 101 -45 160 -24 49 -40 102 -46 144
-4 36 -17 89 -29 118 l-20 52 24 24 c44 44 117 45 234 1 37 -14 52 -15 102 -4
73 15 148 -1 227 -49 31 -18 69 -33 87 -33 17 0 56 -12 86 -26 38 -18 71 -26
105 -26 113 2 213 10 232 20 11 6 56 19 99 27 105 22 142 40 251 121 51 38
112 81 136 95 27 16 50 39 58 60 8 18 31 66 52 108 20 41 37 85 37 97 0 12 7
41 15 64 8 23 15 73 15 110 0 60 3 71 31 106 45 56 66 103 93 201 13 49 36
113 50 143 40 84 36 139 -21 295 -26 71 -63 153 -83 181 -41 62 -174 184 -239
221 -25 15 -63 42 -85 61 -21 19 -54 40 -72 48 -19 8 -54 29 -78 48 -41 31
-90 47 -211 71 -50 9 -327 38 -370 37 -89 0 -306 -23 -351 -38 -71 -22 -260
-30 -343 -14 -61 11 -76 10 -162 -9 -57 -13 -123 -20 -169 -19 -41 0 -117 -2
-168 -7 -129 -10 -141 -4 -193 102 -30 60 -44 104 -49 152 -4 36 -15 81 -24
98 -9 18 -23 63 -32 100 -10 46 -25 78 -43 98 -38 40 -43 60 -31 106 7 27 8
50 1 72 -19 61 -49 144 -59 163 -24 43 -91 201 -98 229 -8 32 -128 265 -185
355 -18 30 -68 100 -109 155 -42 56 -89 122 -105 148 -114 181 -211 321 -239
342 -23 17 -40 45 -55 84 -22 60 -47 88 -121 135 -27 17 -49 48 -96 141 -44
87 -68 124 -87 133 -36 18 -50 47 -42 89 8 45 -15 83 -51 83 -50 0 -64 16 -64
75 0 68 -15 85 -68 78 -39 -5 -40 -4 -70 48 -16 30 -35 73 -41 96 -6 23 -20
61 -31 85 -11 24 -20 56 -20 72 0 44 -75 206 -136 293 -41 59 -54 86 -54 114
0 20 -7 56 -15 79 -8 23 -15 57 -15 74 0 53 -19 101 -57 145 -37 44 -74 131
-100 236 -26 108 -55 188 -101 278 -39 77 -43 93 -38 131 6 37 2 52 -33 117
-48 91 -71 166 -71 233 -1 28 -10 76 -21 106 -11 30 -27 78 -35 105 -8 28 -23
73 -33 100 -26 67 -58 172 -65 215 -3 19 -22 55 -41 79 -30 37 -35 52 -35 95
0 53 -6 67 -74 186 -21 36 -47 88 -57 116 -11 28 -37 80 -59 117 -30 50 -40
76 -40 109 0 33 -9 58 -35 98 -19 30 -35 59 -35 64 0 5 -13 30 -29 55 -16 25
-31 58 -35 73 -3 14 -21 47 -40 71 -19 25 -42 60 -52 79 -9 18 -38 56 -64 85
-41 45 -56 74 -108 215 -76 204 -89 236 -114 271 -11 15 -33 65 -49 110 -16
45 -42 100 -57 122 -34 48 -126 220 -137 255 -13 44 -99 182 -184 298 -18 25
-49 75 -68 111 -19 36 -49 82 -67 101 -18 19 -49 62 -69 95 -19 33 -48 71 -63
85 -14 14 -46 54 -69 90 -24 36 -54 81 -67 100 -14 19 -37 54 -53 78 -15 23
-75 88 -132 145 -57 56 -107 113 -110 127 -4 14 -14 43 -24 65 -25 54 -24 55
18 111 48 62 123 268 123 335 0 15 14 65 31 111 16 46 37 107 45 136 18 65 47
128 112 241 20 34 27 64 32 145 6 73 15 118 33 161 14 33 33 103 42 155 23
138 49 237 81 305 29 60 29 61 26 245 -2 231 -13 352 -40 455 -34 133 -45 195
-52 310 -6 93 -13 124 -44 199 -20 51 -49 104 -67 122 -17 18 -43 53 -58 78
-25 43 -183 196 -202 196 -5 0 -38 27 -73 59 -35 33 -82 71 -105 85 -22 14
-48 37 -56 50 -9 14 -33 33 -53 43 -83 42 -140 80 -194 129 -32 29 -72 55 -89
59 -18 4 -50 24 -73 44 -150 135 -241 178 -503 236 -138 31 -203 54 -245 90
-28 24 -37 26 -73 19 -76 -14 -147 -8 -212 20 -34 14 -80 26 -102 26 -22 0
-62 5 -89 11 -48 11 -52 10 -153 -34 -148 -65 -234 -93 -314 -101 -144 -15
-251 -51 -465 -154 -113 -55 -234 -117 -270 -137 -36 -21 -83 -47 -105 -59
-22 -12 -75 -50 -119 -86 -77 -63 -106 -104 -106 -152 0 -35 -23 -62 -91 -107
-141 -94 -253 -81 -455 52 -61 40 -131 79 -154 86 -24 7 -66 28 -95 47 -33 22
-72 38 -108 44 -34 5 -89 26 -135 51 -124 68 -193 103 -257 132 -33 15 -82 45
-110 67 -27 22 -66 43 -85 46 -19 4 -55 14 -80 24 -87 34 -240 80 -303 90 -35
5 -101 23 -148 39 -46 16 -102 32 -124 36 -22 4 -101 24 -175 45 -74 21 -182
48 -240 60 -58 13 -143 34 -190 47 -47 13 -132 30 -190 38 -58 8 -132 21 -165
29 -178 41 -261 56 -360 65 -60 6 -121 12 -135 15 -14 2 -113 0 -220 -5z"/>
</g>
</svg>
