<?xml version="1.0" standalone="no"?>
<!DOCTYPE svg PUBLIC "-//W3C//DTD SVG 20010904//EN"
 "http://www.w3.org/TR/2001/REC-SVG-20010904/DTD/svg10.dtd">
<svg version="1.0" xmlns="http://www.w3.org/2000/svg"
 width="972.000000pt" height="972.000000pt" viewBox="0 0 972.000000 972.000000"
 preserveAspectRatio="xMidYMid meet">
<metadata>
Created by potrace 1.14, written by Peter Selinger 2001-2017
</metadata>
<g transform="translate(0.000000,972.000000) scale(0.100000,-0.100000)"
fill="#000000" stroke="none">
<path d="M6588 9345 c-2 -1 -23 -5 -48 -9 -53 -7 -59 -8 -127 -26 -29 -8 -53
-18 -53 -24 0 -5 -3 -6 -6 -3 -7 7 -107 -42 -112 -55 -2 -5 -8 -8 -14 -8 -23
0 -190 -151 -233 -212 -41 -58 -83 -150 -103 -225 -15 -57 -18 -61 -42 -57
-14 2 -36 6 -50 8 -14 3 -25 5 -25 6 0 2 -24 7 -75 15 -24 4 -47 8 -50 10 -4
2 -28 6 -56 10 -27 3 -56 7 -64 10 -15 4 -48 9 -135 21 -27 3 -59 8 -70 10
-33 7 -77 13 -135 19 -56 6 -93 10 -165 19 -22 3 -67 8 -100 11 -33 3 -78 8
-100 10 -22 2 -71 7 -110 11 -38 3 -88 8 -110 10 -71 7 -169 15 -231 18 -34 2
-65 6 -70 8 -12 7 -449 2 -499 -6 -22 -3 -60 -8 -85 -11 -25 -2 -45 -5 -45 -5
0 -1 -11 -3 -25 -5 -33 -4 -86 -14 -135 -26 -22 -5 -52 -12 -67 -15 -15 -3
-65 -17 -112 -33 l-85 -27 -23 45 c-143 286 -415 452 -726 446 -166 -4 -286
-50 -381 -145 -70 -70 -104 -146 -107 -241 -4 -94 6 -135 55 -239 15 -32 121
-150 135 -150 9 0 149 -101 175 -126 13 -13 20 -24 15 -24 -5 0 -20 -10 -34
-23 -14 -12 -35 -30 -48 -38 -51 -36 -165 -154 -216 -224 -16 -22 -34 -45 -40
-50 -6 -6 -17 -19 -23 -30 -54 -86 -101 -169 -139 -244 -34 -67 -58 -100 -101
-137 -53 -46 -158 -161 -213 -234 -48 -64 -101 -161 -153 -280 -17 -39 -54
-161 -61 -200 -2 -14 -7 -41 -10 -60 -29 -153 -20 -354 23 -525 35 -144 103
-307 177 -426 17 -27 24 -58 29 -130 8 -118 12 -160 20 -229 4 -30 8 -75 10
-100 2 -25 5 -45 6 -45 1 0 3 -9 4 -20 1 -11 5 -36 8 -55 3 -19 9 -57 12 -85
3 -27 8 -61 10 -75 3 -14 7 -47 11 -75 3 -27 8 -59 10 -70 2 -11 7 -40 10 -65
4 -25 8 -52 9 -60 1 -8 5 -42 9 -75 4 -33 10 -71 12 -85 5 -26 7 -45 19 -185
11 -132 6 -413 -11 -565 -3 -25 -7 -63 -9 -85 -6 -52 -14 -127 -21 -190 -6
-56 -10 -92 -19 -185 -3 -36 -8 -78 -10 -95 -22 -180 -22 -624 0 -729 2 -11 7
-43 10 -71 8 -73 15 -116 25 -150 4 -16 8 -37 8 -45 0 -20 41 -128 82 -215 33
-71 122 -228 153 -269 4 -6 26 -36 48 -66 114 -157 313 -367 439 -463 30 -23
57 -45 58 -49 2 -5 8 -8 13 -8 9 0 65 -36 79 -50 11 -11 178 -102 182 -99 7 5
118 -52 118 -60 0 -5 -9 -26 -20 -48 -25 -50 -62 -134 -64 -148 -1 -5 -4 -14
-8 -20 -15 -26 -41 -155 -39 -200 2 -91 11 -123 45 -163 55 -63 180 -71 246
-15 39 33 99 156 116 238 3 19 25 74 70 173 21 46 49 61 82 43 11 -6 47 -18
79 -27 80 -22 284 -74 308 -80 11 -2 31 -6 45 -9 14 -3 59 -12 100 -20 105
-20 132 -25 156 -30 11 -3 36 -7 55 -9 19 -3 34 -5 34 -6 0 -1 18 -3 40 -5 22
-2 54 -6 70 -9 17 -3 59 -8 95 -11 36 -4 81 -9 100 -11 159 -17 578 -24 755
-11 129 9 204 16 250 23 22 3 56 7 75 10 48 7 200 32 230 39 14 3 43 8 65 11
l40 5 32 -69 c25 -54 81 -209 88 -242 1 -3 8 -21 17 -40 32 -74 108 -138 149
-127 11 3 21 1 24 -4 3 -4 17 -4 30 1 14 5 25 6 25 3 0 -4 5 -2 12 5 7 7 18
12 26 12 24 0 70 62 82 110 10 43 8 137 -4 185 -3 11 -9 36 -14 55 -10 40 -53
150 -76 195 -16 31 -15 33 34 50 52 18 179 74 253 111 248 125 442 273 598
456 30 34 56 65 59 68 16 14 80 111 80 120 0 6 4 10 8 10 5 0 22 24 37 53 16
28 31 54 34 57 10 8 119 243 126 270 0 3 12 37 25 75 13 39 25 75 26 80 1 6
12 46 24 90 12 44 24 89 26 100 2 11 6 31 9 45 10 49 21 110 30 175 2 11 6 34
9 50 9 56 16 110 21 175 3 36 7 85 10 110 8 72 19 260 30 510 20 478 34 719
49 860 2 25 7 77 11 115 7 86 14 154 21 220 7 67 13 126 18 178 5 51 16 151
21 192 2 17 6 57 9 90 11 107 13 110 90 169 182 139 341 348 423 556 18 44 60
163 60 170 1 3 6 24 12 47 6 23 14 61 17 85 3 24 10 63 14 88 9 47 6 379 -3
416 -3 12 -8 39 -11 60 -4 22 -11 57 -17 79 -6 22 -13 47 -14 56 -10 50 -77
222 -115 294 -35 66 -101 177 -109 185 -4 3 -19 23 -36 45 -46 62 -74 94 -151
170 -83 81 -111 105 -123 105 -5 0 -11 4 -13 8 -6 16 -208 148 -208 136 0 -3
-7 2 -16 10 -8 9 -21 16 -27 16 -7 0 -34 11 -62 25 -27 13 -58 25 -67 25 -10
0 -18 4 -18 8 0 5 -6 9 -12 10 -40 2 -67 16 -107 56 -82 78 -135 123 -216 185
-44 33 -85 64 -90 69 -6 5 -15 11 -20 13 -6 2 -49 28 -97 58 l-88 54 22 36
c27 46 83 117 122 157 35 34 109 139 120 169 33 83 40 227 16 301 -19 58 -71
141 -97 155 -13 7 -23 16 -23 20 0 10 -78 54 -125 70 -51 17 -60 18 -120 25
-27 3 -58 6 -67 8 -9 2 -18 3 -20 1z"/>
</g>
</svg>
